<svg width="32" height="32" viewBox="0 0 32 32" fill="none" xmlns="http://www.w3.org/2000/svg">
  <!-- Background circle -->
  <circle cx="16" cy="16" r="16" fill="#4F46E5"/>
  
  <!-- Letter C -->
  <path d="M10 16C10 12.4 12.4 10 16 10C17.8 10 19.4 10.8 20.4 12.2L18.6 13.4C18 12.6 17.1 12 16 12C13.5 12 12 13.5 12 16C12 18.5 13.5 20 16 20C17.1 20 18 19.4 18.6 18.6L20.4 19.8C19.4 21.2 17.8 22 16 22C12.4 22 10 19.6 10 16Z" fill="white"/>
  
  <!-- Letter V -->
  <path d="M20 10H22L18.5 22H16.5L20 10Z" fill="white"/>
  <path d="M24 10H26L22.5 22H20.5L24 10Z" fill="white"/>
</svg>